<?xml version="1.0"?>
<svg xmlns="http://www.w3.org/2000/svg" xmlns:xlink="http://www.w3.org/1999/xlink" version="1.1" id="Capa_1" x="0px" y="0px" viewBox="0 0 344.971 344.971" style="enable-background:new 0 0 344.971 344.971;" xml:space="preserve" width="512px" height="512px" class=""><g><path d="M342.622,330.438L183.814,172.494L341.79,13.646c3.117-3.133,3.105-8.199-0.028-11.316  c-3.133-3.117-8.199-3.105-11.316,0.028l0,0L172.502,161.182L13.67,3.206C10.537,0.089,5.471,0.101,2.354,3.234  s-3.105,8.199,0.028,11.316l0,0L161.19,172.494L3.23,331.326c-3.117,3.133-3.105,8.199,0.028,11.316  c3.133,3.117,8.199,3.105,11.316-0.028l157.928-158.808l158.8,157.976c3.133,3.117,8.199,3.105,11.316-0.028  c3.117-3.133,3.105-8.199-0.028-11.316l0,0L342.622,330.438z" data-original="#6D6E71" class="active-path" data-old_color="#6D6E71" fill="#EB2E00"/></g> </svg>
