<svg width="21" height="21" viewBox="0 0 21 21" fill="none" xmlns="http://www.w3.org/2000/svg">
<path d="M14.6414 0.80835H20.6414V6.80835H18.6414V2.80835H14.6414V0.80835Z" fill="#FF5A00"/>
<path d="M2.64142 14.8083V18.8083H6.64142V20.8083H0.641418V14.8083H2.64142Z" fill="#FF5A00"/>
<path d="M3.64142 10.8083C3.64142 6.90835 6.74142 3.80835 10.6414 3.80835C14.5414 3.80835 17.6414 6.90835 17.6414 10.8083C17.6414 12.4083 17.1414 13.8084 16.2414 15.0084L18.4414 17.2083L17.0414 18.6083L14.8414 16.4083C13.6414 17.3083 12.2414 17.8083 10.6414 17.8083C6.74142 17.8083 3.64142 14.7083 3.64142 10.8083ZM10.6414 15.8083C13.4414 15.8083 15.6414 13.6083 15.6414 10.8083C15.6414 8.00835 13.4414 5.80835 10.6414 5.80835C7.84142 5.80835 5.64142 8.00835 5.64142 10.8083C5.64142 13.6083 7.84142 15.8083 10.6414 15.8083Z" fill="#FF5A00"/>
</svg>
