<svg width="40" height="31" viewBox="0 0 40 31" fill="none" xmlns="http://www.w3.org/2000/svg">
<path d="M34.6084 0.105469H4.82049C2.16144 0.105469 -6.10352e-05 2.26697 -6.10352e-05 4.92602V25.2849C-6.10352e-05 27.944 2.16144 30.1055 4.82049 30.1055H34.6003C37.2593 30.1055 39.4208 27.944 39.4208 25.2849V4.93418C39.429 2.27513 37.2675 0.105469 34.6084 0.105469ZM37.2267 25.2849C37.2267 26.7286 36.0521 27.9032 34.6084 27.9032H4.82049C3.37677 27.9032 2.20222 26.7286 2.20222 25.2849V4.93418C2.20222 3.49046 3.37677 2.31591 4.82049 2.31591H34.6003C36.044 2.31591 37.2185 3.49046 37.2185 4.93418V25.2849H37.2267Z" fill="white"/>
<path d="M24.8612 14.8526L34.5023 6.2066C34.9509 5.79877 34.9917 5.10546 34.5838 4.64869C34.176 4.20008 33.4827 4.15929 33.0259 4.56712L19.7307 16.5002L17.1369 14.1838C17.1287 14.1756 17.1206 14.1675 17.1206 14.1593C17.0635 14.1022 17.0064 14.0533 16.9411 14.0043L6.38646 4.55897C5.92969 4.15114 5.23638 4.19192 4.82855 4.64869C4.42072 5.10546 4.4615 5.79877 4.91827 6.2066L14.6736 14.926L4.95905 24.0206C4.5186 24.4366 4.49413 25.1299 4.91011 25.5785C5.13034 25.8069 5.42398 25.9293 5.71762 25.9293C5.98678 25.9293 6.25595 25.8314 6.46803 25.6356L16.3294 16.4105L19.0047 18.8004C19.2168 18.988 19.4778 19.0777 19.7388 19.0777C19.9998 19.0777 20.269 18.9799 20.4729 18.7923L23.2217 16.329L33.0259 25.6438C33.238 25.8477 33.5153 25.9456 33.7845 25.9456C34.0781 25.9456 34.3636 25.8314 34.5838 25.603C34.9998 25.1626 34.9835 24.4611 34.5431 24.0451L24.8612 14.8526Z" fill="white"/>
</svg>
