<svg width="18" height="31" viewBox="0 0 18 31" fill="none" xmlns="http://www.w3.org/2000/svg">
<path d="M15.4011 0.105469H2.02629C0.912 0.105469 0 1.01661 0 2.13175V28.0783C0 29.1935 0.912 30.1055 2.02629 30.1055H15.4011C16.5154 30.1055 17.4274 29.1952 17.4274 28.0792V2.13175C17.4274 1.01661 16.5154 0.105469 15.4011 0.105469ZM6.57429 1.56604H10.8531C10.9886 1.56604 11.0983 1.67575 11.0983 1.81204C11.0983 1.94747 10.9886 2.05718 10.8531 2.05718H6.57429C6.43886 2.05718 6.32914 1.94747 6.32914 1.81204C6.32914 1.67575 6.43886 1.56604 6.57429 1.56604ZM8.71371 29.0923C8.154 29.0923 7.70057 28.6389 7.70057 28.0783C7.70057 27.5178 8.154 27.0652 8.71371 27.0652C9.27343 27.0652 9.72686 27.5178 9.72686 28.0783C9.72686 28.6389 9.27343 29.0923 8.71371 29.0923ZM16.0174 26.3555H1.41V3.3189H16.0174V26.3555Z" fill="white"/>
</svg>
