<svg width="179" height="123" viewBox="0 0 179 123" fill="none" xmlns="http://www.w3.org/2000/svg">
<path d="M115.677 39.7583L58.5003 69.027L1.32404 39.7583" stroke="#FF5A00" stroke-width="2" stroke-linecap="round" stroke-linejoin="round"/>
<path fill-rule="evenodd" clip-rule="evenodd" d="M115.677 39.7583L58.5003 1.55859L1.32404 39.7583V108.559C1.32404 109.448 1.67695 110.3 2.30515 110.928C2.93335 111.556 3.78538 111.909 4.67379 111.909H112.328C113.216 111.909 114.068 111.556 114.696 110.928C115.324 110.299 115.677 109.448 115.677 108.559V39.7583Z" stroke="#FF5A00" stroke-width="2" stroke-linecap="round" stroke-linejoin="round"/>
<path d="M41.9514 42.7354H75.0504M41.9514 51.431H75.0504M87.7689 54.0438V32.1626H29.2305V54.0451L58.4434 69.1815L87.7689 54.0438Z" stroke="#FF5A00" stroke-width="2" stroke-linecap="round" stroke-linejoin="round"/>
<path d="M152.256 109.108L152.52 107.125L152.487 107.121L152.455 107.118L152.256 109.108ZM148.486 108.523L148.905 106.567L148.486 108.523ZM145.171 107.678L145.753 105.764L145.171 107.678ZM142.831 106.833L140.883 106.377L140.512 107.965L141.993 108.649L142.831 106.833ZM144.716 98.7728L145.495 96.9309L143.309 96.006L142.768 98.3174L144.716 98.7728ZM149.006 100.333L148.387 102.235L148.416 102.244L148.444 102.252L149.006 100.333ZM162.136 99.4228L160.874 97.8706L162.136 99.4228ZM163.436 91.9478L161.705 92.9499L161.736 93.0046L161.772 93.0572L163.436 91.9478ZM161.421 89.9978L160.392 91.7128L160.424 91.7322L160.457 91.7503L161.421 89.9978ZM158.301 88.9578L157.936 90.9244L157.977 90.9319L158.018 90.9377L158.301 88.9578ZM150.761 88.6328H148.761V90.6328H150.761V88.6328ZM150.761 80.8328V78.8328H148.761V80.8328H150.761ZM157.781 80.5728L157.406 78.6082L157.397 78.6099L157.388 78.6117L157.781 80.5728ZM160.186 79.7278L161.166 81.471L161.206 81.4483L161.246 81.4238L160.186 79.7278ZM161.811 78.0378L160.087 77.0238L160.077 77.0405L160.067 77.0573L161.811 78.0378ZM161.941 73.1628L163.677 72.1706L163.677 72.1706L161.941 73.1628ZM160.576 71.6678L159.376 73.2678L159.406 73.2906L159.437 73.3122L160.576 71.6678ZM158.691 70.8228L158.094 72.7318L158.163 72.7532L158.233 72.7697L158.691 70.8228ZM151.346 71.3428L150.683 69.4559L150.674 69.4588L150.666 69.4617L151.346 71.3428ZM147.056 73.4228L145.257 74.2974L146.235 76.3097L148.126 75.1125L147.056 73.4228ZM143.611 66.3378L142.551 64.6418L141.026 65.595L141.812 67.2124L143.611 66.3378ZM146.016 64.9728L145.121 63.184L145.104 63.1924L145.088 63.2012L146.016 64.9728ZM149.136 63.6728L148.481 61.7829L149.136 63.6728ZM152.711 62.6978L152.318 60.7366L152.305 60.7393L152.711 62.6978ZM163.631 63.2828L162.985 65.1759L163.011 65.1845L163.036 65.1926L163.631 63.2828ZM168.441 65.9478L167.078 67.4116L167.092 67.4244L167.106 67.437L168.441 65.9478ZM171.236 69.9778L169.372 70.7027L169.375 70.7117L169.379 70.7206L171.236 69.9778ZM170.651 80.1828L172.362 81.2184L172.368 81.2087L172.373 81.1988L170.651 80.1828ZM166.621 83.9528L165.708 82.1732L161.831 84.1612L165.866 85.805L166.621 83.9528ZM172.016 88.2428L170.346 89.3435L170.36 89.3655L170.375 89.3872L172.016 88.2428ZM172.926 100.788L174.783 101.531L174.786 101.523L174.789 101.515L172.926 100.788ZM169.676 105.338L170.974 106.86L170.986 106.849L170.999 106.838L169.676 105.338ZM164.021 108.328L164.609 110.239L164.62 110.236L164.631 110.232L164.021 108.328ZM155.961 107.368C154.889 107.368 153.743 107.288 152.52 107.125L151.991 111.09C153.369 111.274 154.692 111.368 155.961 111.368V107.368ZM152.455 107.118C151.225 106.995 150.042 106.811 148.905 106.567L148.067 110.478C149.356 110.755 150.687 110.961 152.057 111.098L152.455 107.118ZM148.905 106.567C147.736 106.317 146.687 106.049 145.753 105.764L144.588 109.591C145.648 109.914 146.808 110.209 148.067 110.478L148.905 106.567ZM145.753 105.764C144.794 105.473 144.112 105.222 143.669 105.017L141.993 108.649C142.676 108.964 143.554 109.277 144.588 109.591L145.753 105.764ZM144.778 107.288L146.663 99.2283L142.768 98.3174L140.883 106.377L144.778 107.288ZM143.936 100.615C145.135 101.122 146.623 101.662 148.387 102.235L149.624 98.4308C147.921 97.8775 146.55 97.3773 145.495 96.9309L143.936 100.615ZM148.444 102.252C150.46 102.842 152.851 103.113 155.571 103.113V99.1128C153.09 99.1128 151.105 98.8632 149.567 98.4134L148.444 102.252ZM155.571 103.113C158.736 103.113 161.483 102.53 163.397 100.975L160.874 97.8706C160.015 98.5686 158.385 99.1128 155.571 99.1128V103.113ZM163.397 100.975C165.286 99.4403 166.216 97.3354 166.216 94.8728H162.216C162.216 96.2237 161.759 97.152 160.874 97.8706L163.397 100.975ZM166.216 94.8728C166.216 93.4062 165.888 92.0201 165.1 90.8384L161.772 93.0572C162.024 93.4356 162.216 93.9995 162.216 94.8728H166.216ZM165.166 90.9458C164.5 89.7943 163.557 88.8904 162.384 88.2454L160.457 91.7503C161.017 92.0586 161.418 92.4547 161.705 92.9499L165.166 90.9458ZM162.45 88.2829C161.311 87.5998 160.006 87.1811 158.583 86.9779L158.018 90.9377C159.022 91.0812 159.797 91.3558 160.392 91.7128L162.45 88.2829ZM158.665 86.9913C157.36 86.7497 155.981 86.6328 154.531 86.6328V90.6328C155.767 90.6328 156.901 90.7326 157.936 90.9244L158.665 86.9913ZM154.531 86.6328H150.761V90.6328H154.531V86.6328ZM152.761 88.6328V80.8328H148.761V88.6328H152.761ZM150.761 82.8328H155.051V78.8328H150.761V82.8328ZM155.051 82.8328C156.125 82.8328 157.167 82.7351 158.173 82.534L157.388 78.6117C156.661 78.7572 155.882 78.8328 155.051 78.8328V82.8328ZM158.155 82.5375C159.243 82.3302 160.256 81.983 161.166 81.471L159.205 77.9847C158.729 78.2527 158.138 78.4688 157.406 78.6082L158.155 82.5375ZM161.246 81.4238C162.215 80.8181 162.995 80.012 163.554 79.0184L160.067 77.0573C159.846 77.4504 159.543 77.7709 159.126 78.0318L161.246 81.4238ZM163.534 79.0519C164.191 77.9359 164.461 76.6538 164.461 75.3078H160.461C160.461 76.1286 160.297 76.6665 160.087 77.0238L163.534 79.0519ZM164.461 75.3078C164.461 74.1989 164.225 73.1294 163.677 72.1706L160.204 74.1551C160.35 74.4096 160.461 74.7701 160.461 75.3078H164.461ZM163.677 72.1706C163.185 71.3099 162.528 70.5869 161.714 70.0235L159.437 73.3122C159.75 73.5288 160.003 73.8024 160.204 74.1551L163.677 72.1706ZM161.776 70.0678C161.002 69.4873 160.11 69.1023 159.149 68.876L158.233 72.7697C158.744 72.8901 159.11 73.0684 159.376 73.2678L161.776 70.0678ZM159.287 68.9139C158.398 68.636 157.482 68.4978 156.546 68.4978V72.4978C157.083 72.4978 157.597 72.5763 158.094 72.7318L159.287 68.9139ZM156.546 68.4978C154.478 68.4978 152.519 68.8109 150.683 69.4559L152.009 73.2298C153.379 72.7481 154.886 72.4978 156.546 72.4978V68.4978ZM150.666 69.4617C148.98 70.0707 147.418 70.8262 145.986 71.7332L148.126 75.1125C149.294 74.3728 150.591 73.7417 152.025 73.2239L150.666 69.4617ZM148.854 72.5483L145.409 65.4633L141.812 67.2124L145.257 74.2974L148.854 72.5483ZM144.671 68.0338C145.312 67.6332 146.068 67.2033 146.944 66.7445L145.088 63.2012C144.143 63.6957 143.296 64.1758 142.551 64.6418L144.671 68.0338ZM146.91 66.7617C147.777 66.3282 148.736 65.9276 149.79 65.5628L148.481 61.7829C147.282 62.198 146.161 62.6642 145.121 63.184L146.91 66.7617ZM149.79 65.5628C150.829 65.203 151.937 64.9002 153.116 64.6564L152.305 60.7393C150.971 61.0155 149.695 61.3626 148.481 61.7829L149.79 65.5628ZM153.103 64.659C154.264 64.4268 155.497 64.3078 156.806 64.3078V60.3078C155.254 60.3078 153.757 60.4489 152.318 60.7367L153.103 64.659ZM156.806 64.3078C159.294 64.3078 161.34 64.6149 162.985 65.1759L164.276 61.3898C162.108 60.6508 159.604 60.3078 156.806 60.3078V64.3078ZM163.036 65.1926C164.754 65.7268 166.078 66.4812 167.078 67.4116L169.803 64.484C168.29 63.0745 166.407 62.0522 164.225 61.3731L163.036 65.1926ZM167.106 67.437C168.13 68.3558 168.88 69.438 169.372 70.7027L173.1 69.2529C172.378 67.3977 171.264 65.7932 169.776 64.4587L167.106 67.437ZM169.379 70.7206C169.881 71.9755 170.146 73.3883 170.146 74.9828H174.146C174.146 72.9374 173.804 71.0135 173.093 69.2351L169.379 70.7206ZM170.146 74.9828C170.146 76.3657 169.763 77.7517 168.928 79.1669L172.373 81.1988C173.532 79.234 174.146 77.1533 174.146 74.9828H170.146ZM168.94 79.1472C168.132 80.4812 167.063 81.4781 165.708 82.1732L167.533 85.7325C169.558 84.6942 171.176 83.1778 172.362 81.2184L168.94 79.1472ZM165.866 85.805C167.874 86.6229 169.335 87.8096 170.346 89.3435L173.686 87.1422C172.183 84.8628 170.048 83.1894 167.375 82.1007L165.866 85.805ZM170.375 89.3872C171.405 90.8625 171.966 92.6999 171.966 95.0028H175.966C175.966 92.0191 175.227 89.3498 173.656 87.0985L170.375 89.3872ZM171.966 95.0028C171.966 96.8567 171.657 98.536 171.062 100.061L174.789 101.515C175.58 99.4863 175.966 97.309 175.966 95.0028H171.966ZM171.069 100.045C170.498 101.473 169.604 102.734 168.352 103.838L170.999 106.838C172.694 105.342 173.967 103.57 174.783 101.531L171.069 100.045ZM168.378 103.816C167.149 104.864 165.514 105.748 163.41 106.423L164.631 110.232C167.12 109.434 169.256 108.325 170.974 106.86L168.378 103.816ZM163.432 106.416C161.42 107.036 158.942 107.368 155.961 107.368V111.368C159.22 111.368 162.115 111.007 164.609 110.239L163.432 106.416Z" fill="#FF5A00"/>
</svg>
