<svg width="169" height="123" viewBox="0 0 169 123" fill="none" xmlns="http://www.w3.org/2000/svg">
<path d="M64.2146 1.55989H95.8183M22.5934 33.9476H58.22M22.5934 49.1389H61.5377M22.5934 64.3302H74.408M22.5934 79.5215H74.408M95.8198 55.9227V111.909H1.18011V1.55859H95.8198V55.9227Z" stroke="#FF5A00" stroke-width="2" stroke-linecap="round" stroke-linejoin="round"/>
<path fill-rule="evenodd" clip-rule="evenodd" d="M32.7868 3.37164V17.0899C32.7868 18.3877 34.0258 19.439 35.5539 19.439H36.6629C37.3345 19.4388 37.9832 19.2315 38.488 18.8557C38.9929 18.4798 39.3195 17.9611 39.4071 17.3962L39.4514 17.1041C39.7564 15.1261 40.899 13.3097 42.6661 11.9938C44.4331 10.6778 46.704 9.9522 49.0552 9.9522C51.4064 9.9522 53.6773 10.6778 55.4443 11.9938C57.2114 13.3097 58.354 15.1261 58.659 17.1041L58.7033 17.3962C58.7989 17.9844 59.1535 18.5201 59.6958 18.8955C60.2381 19.2709 60.9278 19.4581 61.6262 19.4195C62.3246 19.3808 62.9798 19.1192 63.4601 18.6872C63.9403 18.2552 64.2099 17.685 64.2146 17.0912V3.37164C64.2146 2.371 63.257 1.55855 62.0777 1.55855H34.9237C33.7444 1.55855 32.7868 2.371 32.7868 3.37164Z" stroke="#FF5A00" stroke-width="2" stroke-linecap="round" stroke-linejoin="round"/>
<path d="M71.7643 98.6355L79.0377 104.138L89.5258 93.2558" stroke="#FF5A00" stroke-width="2" stroke-linecap="round" stroke-linejoin="round"/>
<path d="M162.406 79.9228L164.244 80.7107H164.244L162.406 79.9228ZM159.871 84.3428L161.471 85.5428L161.479 85.5311L161.488 85.5192L159.871 84.3428ZM152.526 92.0778L151.163 90.614L151.161 90.6157L152.526 92.0778ZM150.381 94.1578L148.966 92.7436V92.7436L150.381 94.1578ZM148.236 96.4328L146.741 95.1041L146.741 95.1041L148.236 96.4328ZM146.351 98.6428L144.798 97.3817L144.794 97.3875L144.789 97.3934L146.351 98.6428ZM145.376 100.268L143.46 99.6931L142.688 102.268H145.376V100.268ZM164.746 100.268H166.746V98.2678H164.746V100.268ZM164.746 108.393V110.393H166.746V108.393H164.746ZM134.716 108.393L132.748 108.751L133.046 110.393H134.716V108.393ZM135.561 99.2928L133.704 98.5501L133.696 98.5702L133.688 98.5906L135.561 99.2928ZM138.226 94.4828L139.837 95.6676L139.845 95.6565L139.853 95.6453L138.226 94.4828ZM141.866 90.2578L140.498 88.7988L140.486 88.8096L140.475 88.8206L141.866 90.2578ZM145.961 86.3578L144.577 84.9138L144.57 84.9206L145.961 86.3578ZM148.886 83.5628L150.265 85.0111L150.283 84.9943L150.3 84.9771L148.886 83.5628ZM151.291 80.9628L152.82 82.2511L152.837 82.2319L152.852 82.2122L151.291 80.9628ZM152.916 78.4278L154.723 79.284L154.731 79.2664L154.739 79.2486L152.916 78.4278ZM144.531 71.2128L145.188 73.1018L145.21 73.0939L145.233 73.0855L144.531 71.2128ZM141.736 72.5128L142.738 74.2437L142.751 74.2359L142.765 74.2278L141.736 72.5128ZM139.591 74.0078L140.826 75.5805L140.86 75.5541L140.892 75.5264L139.591 74.0078ZM138.226 75.1778L136.596 76.3373L137.967 78.2646L139.64 76.5921L138.226 75.1778ZM133.416 68.4178L132.052 66.9546L130.77 68.1494L131.786 69.5773L133.416 68.4178ZM140.046 64.0628L140.864 65.8879L140.871 65.8847L140.878 65.8815L140.046 64.0628ZM155.061 63.2178L155.667 61.312L155.061 63.2178ZM159.741 65.8178L158.38 67.2834L158.407 67.3085L158.435 67.3327L159.741 65.8178ZM162.471 69.8478L160.584 70.5108L160.595 70.542L160.607 70.5727L162.471 69.8478ZM161.381 75.1778C161.381 76.5531 161.111 77.8668 160.567 79.135L164.244 80.7107C165 78.9456 165.381 77.0959 165.381 75.1778H161.381ZM160.567 79.135C159.98 80.5049 159.211 81.8488 158.253 83.1665L161.488 85.5192C162.61 83.9769 163.531 82.3741 164.244 80.7107L160.567 79.135ZM158.271 83.1428C157.291 84.4494 156.183 85.7215 154.946 86.9586L157.775 89.787C159.138 88.4241 160.371 87.0096 161.471 85.5428L158.271 83.1428ZM154.946 86.9586C153.662 88.243 152.401 89.4614 151.163 90.614L153.888 93.5416C155.164 92.3543 156.459 91.1027 157.775 89.787L154.946 86.9586ZM151.161 90.6157C150.491 91.2413 149.759 91.9511 148.966 92.7436L151.795 95.5721C152.562 94.8046 153.26 94.1277 153.89 93.5399L151.161 90.6157ZM148.966 92.7436C148.202 93.508 147.46 94.2949 146.741 95.1041L149.73 97.7616C150.398 97.0108 151.086 96.281 151.795 95.572L148.966 92.7436ZM146.741 95.1041C146.031 95.9026 145.383 96.662 144.798 97.3817L147.903 99.904C148.445 99.237 149.054 98.523 149.73 97.7616L146.741 95.1041ZM144.789 97.3934C144.22 98.1041 143.702 98.8873 143.46 99.6931L147.291 100.843C147.291 100.843 147.293 100.837 147.298 100.824C147.303 100.811 147.311 100.793 147.322 100.768C147.345 100.719 147.38 100.652 147.432 100.566C147.536 100.391 147.692 100.168 147.912 99.8922L144.789 97.3934ZM145.376 102.268H164.746V98.2678H145.376V102.268ZM162.746 100.268V108.393H166.746V100.268H162.746ZM164.746 106.393H134.716V110.393H164.746V106.393ZM136.683 108.035C136.626 107.72 136.586 107.245 136.586 106.573H132.586C132.586 107.374 132.632 108.112 132.748 108.751L136.683 108.035ZM136.586 106.573C136.586 106.571 136.586 106.57 136.586 106.569C136.586 106.567 136.586 106.566 136.586 106.564C136.586 106.563 136.586 106.561 136.586 106.56C136.586 106.558 136.586 106.557 136.586 106.556C136.586 106.554 136.586 106.553 136.586 106.551C136.586 106.55 136.586 106.548 136.586 106.547C136.586 106.546 136.586 106.544 136.586 106.543C136.586 106.541 136.586 106.54 136.586 106.538C136.586 106.537 136.586 106.536 136.586 106.534C136.586 106.533 136.586 106.531 136.586 106.53C136.586 106.528 136.586 106.527 136.586 106.526C136.586 106.524 136.586 106.523 136.586 106.521C136.586 106.52 136.586 106.519 136.586 106.517C136.586 106.516 136.586 106.514 136.586 106.513C136.586 106.511 136.586 106.51 136.586 106.509C136.586 106.507 136.586 106.506 136.586 106.504C136.586 106.503 136.586 106.502 136.586 106.5C136.586 106.499 136.586 106.497 136.586 106.496C136.586 106.495 136.586 106.493 136.586 106.492C136.586 106.49 136.586 106.489 136.586 106.488C136.586 106.486 136.586 106.485 136.586 106.483C136.586 106.482 136.586 106.48 136.586 106.479C136.586 106.478 136.586 106.476 136.586 106.475C136.586 106.473 136.586 106.472 136.586 106.471C136.586 106.469 136.586 106.468 136.586 106.466C136.586 106.465 136.586 106.464 136.586 106.462C136.586 106.461 136.586 106.459 136.586 106.458C136.586 106.457 136.586 106.455 136.586 106.454C136.586 106.453 136.586 106.451 136.586 106.45C136.586 106.448 136.586 106.447 136.586 106.446C136.586 106.444 136.586 106.443 136.586 106.441C136.586 106.44 136.586 106.439 136.586 106.437C136.586 106.436 136.586 106.434 136.586 106.433C136.586 106.432 136.586 106.43 136.586 106.429C136.586 106.428 136.586 106.426 136.586 106.425C136.586 106.423 136.586 106.422 136.586 106.421C136.586 106.419 136.586 106.418 136.586 106.417C136.586 106.415 136.586 106.414 136.586 106.412C136.586 106.411 136.586 106.41 136.586 106.408C136.586 106.407 136.586 106.406 136.586 106.404C136.586 106.403 136.586 106.401 136.586 106.4C136.586 106.399 136.586 106.397 136.586 106.396C136.586 106.395 136.586 106.393 136.586 106.392C136.586 106.39 136.586 106.389 136.586 106.388C136.586 106.386 136.586 106.385 136.586 106.384C136.586 106.382 136.586 106.381 136.586 106.38C136.586 106.378 136.586 106.377 136.586 106.375C136.586 106.374 136.586 106.373 136.586 106.371C136.586 106.37 136.586 106.369 136.586 106.367C136.586 106.366 136.586 106.365 136.586 106.363C136.586 106.362 136.586 106.361 136.586 106.359C136.586 106.358 136.586 106.356 136.586 106.355C136.586 106.354 136.586 106.352 136.586 106.351C136.586 106.35 136.586 106.348 136.586 106.347C136.586 106.346 136.586 106.344 136.586 106.343C136.586 106.342 136.586 106.34 136.586 106.339C136.586 106.338 136.586 106.336 136.586 106.335C136.586 106.334 136.586 106.332 136.586 106.331C136.586 106.329 136.586 106.328 136.586 106.327C136.586 106.325 136.586 106.324 136.586 106.323C136.586 106.321 136.586 106.32 136.586 106.319C136.586 106.317 136.586 106.316 136.586 106.315C136.586 106.313 136.586 106.312 136.586 106.311C136.586 106.309 136.586 106.308 136.586 106.307C136.586 106.305 136.586 106.304 136.586 106.303C136.586 106.301 136.586 106.3 136.586 106.299C136.586 106.297 136.586 106.296 136.586 106.295C136.586 106.293 136.586 106.292 136.586 106.291C136.586 106.289 136.586 106.288 136.586 106.287C136.586 106.285 136.586 106.284 136.586 106.283C136.586 106.282 136.586 106.28 136.586 106.279C136.586 106.278 136.586 106.276 136.586 106.275C136.586 106.274 136.586 106.272 136.586 106.271C136.586 106.27 136.586 106.268 136.586 106.267C136.586 106.266 136.586 106.264 136.586 106.263C136.586 106.262 136.586 106.26 136.586 106.259C136.586 106.258 136.586 106.256 136.586 106.255C136.586 106.254 136.586 106.253 136.586 106.251C136.586 106.25 136.586 106.249 136.586 106.247C136.586 106.246 136.586 106.245 136.586 106.243C136.586 106.242 136.586 106.241 136.586 106.239C136.586 106.238 136.586 106.237 136.586 106.236C136.586 106.234 136.586 106.233 136.586 106.232C136.586 106.23 136.586 106.229 136.586 106.228C136.586 106.226 136.586 106.225 136.586 106.224C136.586 106.223 136.586 106.221 136.586 106.22C136.586 106.219 136.586 106.217 136.586 106.216C136.586 106.215 136.586 106.213 136.586 106.212C136.586 106.211 136.586 106.21 136.586 106.208C136.586 106.207 136.586 106.206 136.586 106.204C136.586 106.203 136.586 106.202 136.586 106.201C136.586 106.199 136.586 106.198 136.586 106.197C136.586 106.195 136.586 106.194 136.586 106.193C136.586 106.192 136.586 106.19 136.586 106.189C136.586 106.188 136.586 106.186 136.586 106.185C136.586 106.184 136.586 106.183 136.586 106.181C136.586 106.18 136.586 106.179 136.586 106.177C136.586 106.176 136.586 106.175 136.586 106.174C136.586 106.172 136.586 106.171 136.586 106.17C136.586 106.169 136.586 106.167 136.586 106.166C136.586 106.165 136.586 106.163 136.586 106.162C136.586 106.161 136.586 106.16 136.586 106.158C136.586 106.157 136.586 106.156 136.586 106.155C136.586 106.153 136.586 106.152 136.586 106.151C136.586 106.149 136.586 106.148 136.586 106.147C136.586 106.146 136.586 106.144 136.586 106.143C136.586 106.142 136.586 106.141 136.586 106.139C136.586 106.138 136.586 106.137 136.586 106.136C136.586 106.134 136.586 106.133 136.586 106.132C136.586 106.131 136.586 106.129 136.586 106.128C136.586 106.127 136.586 106.126 136.586 106.124C136.586 106.123 136.586 106.122 136.586 106.121C136.586 106.119 136.586 106.118 136.586 106.117C136.586 106.115 136.586 106.114 136.586 106.113C136.586 106.112 136.586 106.11 136.586 106.109C136.586 106.108 136.586 106.107 136.586 106.105C136.586 106.104 136.586 106.103 136.586 106.102C136.586 106.101 136.586 106.099 136.586 106.098C136.586 106.097 136.586 106.096 136.586 106.094C136.586 106.093 136.586 106.092 136.586 106.091C136.586 106.089 136.586 106.088 136.586 106.087C136.586 106.086 136.586 106.084 136.586 106.083C136.586 106.082 136.586 106.081 136.586 106.079C136.586 106.078 136.586 106.077 136.586 106.076C136.586 106.074 136.586 106.073 136.586 106.072C136.586 106.071 136.586 106.07 136.586 106.068C136.586 106.067 136.586 106.066 136.586 106.065C136.586 106.063 136.586 106.062 136.586 106.061C136.586 106.06 136.586 106.059 136.586 106.057C136.586 106.056 136.586 106.055 136.586 106.054C136.586 106.052 136.586 106.051 136.586 106.05C136.586 106.049 136.586 106.047 136.586 106.046C136.586 106.045 136.586 106.044 136.586 106.043C136.586 106.041 136.586 106.04 136.586 106.039C136.586 106.038 136.586 106.037 136.586 106.035C136.586 106.034 136.586 106.033 136.586 106.032C136.586 106.03 136.586 106.029 136.586 106.028C136.586 106.027 136.586 106.026 136.586 106.024C136.586 106.023 136.586 106.022 136.586 106.021C136.586 106.02 136.586 106.018 136.586 106.017C136.586 106.016 136.586 106.015 136.586 106.014C136.586 106.012 136.586 106.011 136.586 106.01C136.586 106.009 136.586 106.007 136.586 106.006C136.586 106.005 136.586 106.004 136.586 106.003C136.586 106.001 136.586 106 136.586 105.999C136.586 105.998 136.586 105.997 136.586 105.995C136.586 105.994 136.586 105.993 136.586 105.992C136.586 105.991 136.586 105.99 136.586 105.988C136.586 105.987 136.586 105.986 136.586 105.985C136.586 105.984 136.586 105.982 136.586 105.981C136.586 105.98 136.586 105.979 136.586 105.978C136.586 105.976 136.586 105.975 136.586 105.974C136.586 105.973 136.586 105.972 136.586 105.97C136.586 105.969 136.586 105.968 136.586 105.967C136.586 105.966 136.586 105.965 136.586 105.963C136.586 105.962 136.586 105.961 136.586 105.96C136.586 105.959 136.586 105.957 136.586 105.956C136.586 105.955 136.586 105.954 136.586 105.953C136.586 105.952 136.586 105.95 136.586 105.949C136.586 105.948 136.586 105.947 136.586 105.946C136.586 105.945 136.586 105.943 136.586 105.942C136.586 105.941 136.586 105.94 136.586 105.939C136.586 105.937 136.586 105.936 136.586 105.935C136.586 105.934 136.586 105.933 136.586 105.932C136.586 105.93 136.586 105.929 136.586 105.928C136.586 105.927 136.586 105.926 136.586 105.925C136.586 105.923 136.586 105.922 136.586 105.921C136.586 105.92 136.586 105.919 136.586 105.918C136.586 105.917 136.586 105.915 136.586 105.914C136.586 105.913 136.586 105.912 136.586 105.911C136.586 105.91 136.586 105.908 136.586 105.907C136.586 105.906 136.586 105.905 136.586 105.904C136.586 105.903 136.586 105.901 136.586 105.9C136.586 105.899 136.586 105.898 136.586 105.897C136.586 105.896 136.586 105.895 136.586 105.893C136.586 105.892 136.586 105.891 136.586 105.89C136.586 105.889 136.586 105.888 136.586 105.887C136.586 105.885 136.586 105.884 136.586 105.883C136.586 105.882 136.586 105.881 136.586 105.88C136.586 105.879 136.586 105.877 136.586 105.876C136.586 105.875 136.586 105.874 136.586 105.873C136.586 105.872 136.586 105.871 136.586 105.869C136.586 105.868 136.586 105.867 136.586 105.866C136.586 105.865 136.586 105.864 136.586 105.863C136.586 105.861 136.586 105.86 136.586 105.859C136.586 105.858 136.586 105.857 136.586 105.856C136.586 105.855 136.586 105.854 136.586 105.852C136.586 105.851 136.586 105.85 136.586 105.849C136.586 105.848 136.586 105.847 136.586 105.846C136.586 105.844 136.586 105.843 136.586 105.842C136.586 105.841 136.586 105.84 136.586 105.839C136.586 105.838 136.586 105.837 136.586 105.835C136.586 105.834 136.586 105.833 136.586 105.832C136.586 105.831 136.586 105.83 136.586 105.829C136.586 105.828 136.586 105.827 136.586 105.825C136.586 105.824 136.586 105.823 136.586 105.822C136.586 105.821 136.586 105.82 136.586 105.819C136.586 105.818 136.586 105.817 136.586 105.815C136.586 105.814 136.586 105.813 136.586 105.812C136.586 105.811 136.586 105.81 136.586 105.809C136.586 105.808 136.586 105.807 136.586 105.805C136.586 105.804 136.586 105.803 136.586 105.802C136.586 105.801 136.586 105.8 136.586 105.799C136.586 105.798 136.586 105.797 136.586 105.795C136.586 105.794 136.586 105.793 136.586 105.792C136.586 105.791 136.586 105.79 136.586 105.789C136.586 105.788 136.586 105.787 136.586 105.786C136.586 105.784 136.586 105.783 136.586 105.782C136.586 105.781 136.586 105.78 136.586 105.779C136.586 105.778 136.586 105.777 136.586 105.776C136.586 105.775 136.586 105.774 136.586 105.772C136.586 105.771 136.586 105.77 136.586 105.769C136.586 105.768 136.586 105.767 136.586 105.766C136.586 105.765 136.586 105.764 136.586 105.763C136.586 105.762 136.586 105.761 136.586 105.759C136.586 105.758 136.586 105.757 136.586 105.756C136.586 105.755 136.586 105.754 136.586 105.753C136.586 105.752 136.586 105.751 136.586 105.75C136.586 105.749 136.586 105.748 136.586 105.746C136.586 105.745 136.586 105.744 136.586 105.743C136.586 105.742 136.586 105.741 136.586 105.74C136.586 105.739 136.586 105.738 136.586 105.737C136.586 105.736 136.586 105.735 136.586 105.734C136.586 105.733 136.586 105.731 136.586 105.73C136.586 105.729 136.586 105.728 136.586 105.727C136.586 105.726 136.586 105.725 136.586 105.724C136.586 105.723 136.586 105.722 136.586 105.721C136.586 105.72 136.586 105.719 136.586 105.718C136.586 105.717 136.586 105.715 136.586 105.714C136.586 105.713 136.586 105.712 136.586 105.711C136.586 105.71 136.586 105.709 136.586 105.708C136.586 105.707 136.586 105.706 136.586 105.705C136.586 105.704 136.586 105.703 136.586 105.702C136.586 105.701 136.586 105.7 136.586 105.699C136.586 105.698 136.586 105.696 136.586 105.695C136.586 105.694 136.586 105.693 136.586 105.692C136.586 105.691 136.586 105.69 136.586 105.689C136.586 105.688 136.586 105.687 136.586 105.686C136.586 105.685 136.586 105.684 136.586 105.683C136.586 105.682 136.586 105.681 136.586 105.68C136.586 105.679 136.586 105.678 136.586 105.677C136.586 105.676 136.586 105.675 136.586 105.673C136.586 105.672 136.586 105.671 136.586 105.67C136.586 105.669 136.586 105.668 136.586 105.667C136.586 105.666 136.586 105.665 136.586 105.664C136.586 105.663 136.586 105.662 136.586 105.661C136.586 105.66 136.586 105.659 136.586 105.658C136.586 105.657 136.586 105.656 136.586 105.655C136.586 105.654 136.586 105.653 136.586 105.652C136.586 105.651 136.586 105.65 136.586 105.649C136.586 105.648 136.586 105.647 136.586 105.646C136.586 105.645 136.586 105.644 136.586 105.643C136.586 105.642 136.586 105.641 136.586 105.639C136.586 105.638 136.586 105.637 136.586 105.636C136.586 105.635 136.586 105.634 136.586 105.633C136.586 105.632 136.586 105.631 136.586 105.63C136.586 105.629 136.586 105.628 136.586 105.627C136.586 105.626 136.586 105.625 136.586 105.624C136.586 105.623 136.586 105.622 136.586 105.621C136.586 105.62 136.586 105.619 136.586 105.618C136.586 105.617 136.586 105.616 136.586 105.615C136.586 105.614 136.586 105.613 136.586 105.612C136.586 105.611 136.586 105.61 136.586 105.609C136.586 105.608 136.586 105.607 136.586 105.606C136.586 105.605 136.586 105.604 136.586 105.603C136.586 105.602 136.586 105.601 136.586 105.6C136.586 105.599 136.586 105.598 136.586 105.597C136.586 105.596 136.586 105.595 136.586 105.594C136.586 105.593 136.586 105.592 136.586 105.591C136.586 105.59 136.586 105.589 136.586 105.588C136.586 105.587 136.586 105.586 136.586 105.585C136.586 105.584 136.586 105.583 136.586 105.582C136.586 105.581 136.586 105.58 136.586 105.579C136.586 105.578 136.586 105.577 136.586 105.576C136.586 105.575 136.586 105.574 136.586 105.573C136.586 105.572 136.586 105.571 136.586 105.57C136.586 105.569 136.586 105.568 136.586 105.567C136.586 105.566 136.586 105.565 136.586 105.565C136.586 105.564 136.586 105.563 136.586 105.562C136.586 105.561 136.586 105.56 136.586 105.559C136.586 105.558 136.586 105.557 136.586 105.556C136.586 105.555 136.586 105.554 136.586 105.553C136.586 105.552 136.586 105.551 136.586 105.55C136.586 105.549 136.586 105.548 136.586 105.547C136.586 105.546 136.586 105.545 136.586 105.544C136.586 105.543 136.586 105.542 136.586 105.541C136.586 105.54 136.586 105.539 136.586 105.538C136.586 105.537 136.586 105.536 136.586 105.535C136.586 105.534 136.586 105.533 136.586 105.532C136.586 105.532 136.586 105.531 136.586 105.53C136.586 105.529 136.586 105.528 136.586 105.527C136.586 105.526 136.586 105.525 136.586 105.524C136.586 105.523 136.586 105.522 136.586 105.521C136.586 105.52 136.586 105.519 136.586 105.518C136.586 105.517 136.586 105.516 136.586 105.515C136.586 105.514 136.586 105.513 136.586 105.512C136.586 105.511 136.586 105.511 136.586 105.51C136.586 105.509 136.586 105.508 136.586 105.507C136.586 105.506 136.586 105.505 136.586 105.504C136.586 105.503 136.586 105.502 136.586 105.501C136.586 105.5 136.586 105.499 136.586 105.498C136.586 105.497 136.586 105.496 136.586 105.495C136.586 105.494 136.586 105.494 136.586 105.493C136.586 105.492 136.586 105.491 136.586 105.49C136.586 105.489 136.586 105.488 136.586 105.487C136.586 105.486 136.586 105.485 136.586 105.484C136.586 105.483 136.586 105.482 136.586 105.481C136.586 105.48 136.586 105.48 136.586 105.479C136.586 105.478 136.586 105.477 136.586 105.476C136.586 105.475 136.586 105.474 136.586 105.473C136.586 105.472 136.586 105.471 136.586 105.47C136.586 105.469 136.586 105.468 136.586 105.467C136.586 105.467 136.586 105.466 136.586 105.465C136.586 105.464 136.586 105.463 136.586 105.462C136.586 105.461 136.586 105.46 136.586 105.459C136.586 105.458 136.586 105.457 136.586 105.456C136.586 105.456 136.586 105.455 136.586 105.454C136.586 105.453 136.586 105.452 136.586 105.451C136.586 105.45 136.586 105.449 136.586 105.448C136.586 105.447 136.586 105.446 136.586 105.445C136.586 105.445 136.586 105.444 136.586 105.443C136.586 105.442 136.586 105.441 136.586 105.44C136.586 105.439 136.586 105.438 136.586 105.437C136.586 105.436 136.586 105.436 136.586 105.435C136.586 105.434 136.586 105.433 136.586 105.432C136.586 105.431 136.586 105.43 136.586 105.429C136.586 105.428 136.586 105.427 136.586 105.427C136.586 105.426 136.586 105.425 136.586 105.424C136.586 105.423 136.586 105.422 136.586 105.421C136.586 105.42 136.586 105.419 136.586 105.418C136.586 105.418 136.586 105.417 136.586 105.416C136.586 105.415 136.586 105.414 136.586 105.413C136.586 105.412 136.586 105.411 136.586 105.41C136.586 105.41 136.586 105.409 136.586 105.408C136.586 105.407 136.586 105.406 136.586 105.405C136.586 105.404 136.586 105.403 136.586 105.402C136.586 105.402 136.586 105.401 136.586 105.4C136.586 105.399 136.586 105.398 136.586 105.397C136.586 105.396 136.586 105.395 136.586 105.395C136.586 105.394 136.586 105.393 136.586 105.392C136.586 105.391 136.586 105.39 136.586 105.389C136.586 105.388 136.586 105.388 136.586 105.387C136.586 105.386 136.586 105.385 136.586 105.384C136.586 105.383 136.586 105.382 136.586 105.381C136.586 105.381 136.586 105.38 136.586 105.379C136.586 105.378 136.586 105.377 136.586 105.376C136.586 105.375 136.586 105.374 136.586 105.374C136.586 105.373 136.586 105.372 136.586 105.371C136.586 105.37 136.586 105.369 136.586 105.368C136.586 105.368 136.586 105.367 136.586 105.366C136.586 105.365 136.586 105.364 136.586 105.363C136.586 105.362 136.586 105.362 136.586 105.361C136.586 105.36 136.586 105.359 136.586 105.358C136.586 105.357 136.586 105.356 136.586 105.356C136.586 105.355 136.586 105.354 136.586 105.353C136.586 105.352 136.586 105.351 136.586 105.35C136.586 105.35 136.586 105.349 136.586 105.348C136.586 105.347 136.586 105.346 136.586 105.345C136.586 105.345 136.586 105.344 136.586 105.343C136.586 105.342 136.586 105.341 136.586 105.34C136.586 105.339 136.586 105.339 136.586 105.338C136.586 105.337 136.586 105.336 136.586 105.335C136.586 105.334 136.586 105.334 136.586 105.333C136.586 105.332 136.586 105.331 136.586 105.33C136.586 105.329 136.586 105.329 136.586 105.328C136.586 105.327 136.586 105.326 136.586 105.325C136.586 105.324 136.586 105.324 136.586 105.323C136.586 105.322 136.586 105.321 136.586 105.32C136.586 105.319 136.586 105.319 136.586 105.318C136.586 105.317 136.586 105.316 136.586 105.315C136.586 105.314 136.586 105.314 136.586 105.313C136.586 105.312 136.586 105.311 136.586 105.31C136.586 105.309 136.586 105.309 136.586 105.308C136.586 105.307 136.586 105.306 136.586 105.305C136.586 105.305 136.586 105.304 136.586 105.303C136.586 105.302 136.586 105.301 136.586 105.3C136.586 105.3 136.586 105.299 136.586 105.298C136.586 105.297 136.586 105.296 136.586 105.296C136.586 105.295 136.586 105.294 136.586 105.293C136.586 105.292 136.586 105.291 136.586 105.291C136.586 105.29 136.586 105.289 136.586 105.288C136.586 105.287 136.586 105.287 136.586 105.286C136.586 105.285 136.586 105.284 136.586 105.283C136.586 105.283 136.586 105.282 136.586 105.281C136.586 105.28 136.586 105.279 136.586 105.279C136.586 105.278 136.586 105.277 136.586 105.276C136.586 105.275 136.586 105.275 136.586 105.274C136.586 105.273 136.586 105.272 136.586 105.271C136.586 105.271 136.586 105.27 136.586 105.269C136.586 105.268 136.586 105.267 136.586 105.267C136.586 105.266 136.586 105.265 136.586 105.264C136.586 105.263 136.586 105.263 136.586 105.262C136.586 105.261 136.586 105.26 136.586 105.259C136.586 105.259 136.586 105.258 136.586 105.257C136.586 105.256 136.586 105.256 136.586 105.255C136.586 105.254 136.586 105.253 136.586 105.252C136.586 105.252 136.586 105.251 136.586 105.25C136.586 105.249 136.586 105.248 136.586 105.248C136.586 105.247 136.586 105.246 136.586 105.245C136.586 105.245 136.586 105.244 136.586 105.243C136.586 105.242 136.586 105.241 136.586 105.241C136.586 105.24 136.586 105.239 136.586 105.238C136.586 105.238 136.586 105.237 136.586 105.236C136.586 105.235 136.586 105.234 136.586 105.234C136.586 105.233 136.586 105.232 136.586 105.231C136.586 105.231 136.586 105.23 136.586 105.229C136.586 105.228 136.586 105.228 136.586 105.227C136.586 105.226 136.586 105.225 136.586 105.224C136.586 105.224 136.586 105.223 136.586 105.222C136.586 105.221 136.586 105.221 136.586 105.22C136.586 105.219 136.586 105.218 136.586 105.218C136.586 105.217 136.586 105.216 136.586 105.215C136.586 105.215 136.586 105.214 136.586 105.213C136.586 105.212 136.586 105.212 136.586 105.211C136.586 105.21 136.586 105.209 136.586 105.209C136.586 105.208 136.586 105.207 136.586 105.206C136.586 105.206 136.586 105.205 136.586 105.204C136.586 105.203 136.586 105.203 136.586 105.202C136.586 105.201 136.586 105.2 136.586 105.2C136.586 105.199 136.586 105.198 136.586 105.197C136.586 105.197 136.586 105.196 136.586 105.195C136.586 105.194 136.586 105.194 136.586 105.193C136.586 105.192 136.586 105.191 136.586 105.191C136.586 105.19 136.586 105.189 136.586 105.188C136.586 105.188 136.586 105.187 136.586 105.186C136.586 105.185 136.586 105.185 136.586 105.184C136.586 105.183 136.586 105.183 136.586 105.182C136.586 105.181 136.586 105.18 136.586 105.18C136.586 105.179 136.586 105.178 136.586 105.177C136.586 105.177 136.586 105.176 136.586 105.175C136.586 105.175 136.586 105.174 136.586 105.173C136.586 105.172 136.586 105.172 136.586 105.171C136.586 105.17 136.586 105.169 136.586 105.169C136.586 105.168 136.586 105.167 136.586 105.167C136.586 105.166 136.586 105.165 136.586 105.164C136.586 105.164 136.586 105.163 136.586 105.162C136.586 105.162 136.586 105.161 136.586 105.16C136.586 105.159 136.586 105.159 136.586 105.158C136.586 105.157 136.586 105.157 136.586 105.156C136.586 105.155 136.586 105.154 136.586 105.154C136.586 105.153 136.586 105.152 136.586 105.152C136.586 105.151 136.586 105.15 136.586 105.149C136.586 105.149 136.586 105.148 136.586 105.147C136.586 105.147 136.586 105.146 136.586 105.145C136.586 105.144 136.586 105.144 136.586 105.143C136.586 105.142 136.586 105.142 136.586 105.141C136.586 105.14 136.586 105.14 136.586 105.139C136.586 105.138 136.586 105.137 136.586 105.137C136.586 105.136 136.586 105.135 136.586 105.135C136.586 105.134 136.586 105.133 136.586 105.133C136.586 105.132 136.586 105.131 136.586 105.13C136.586 105.13 136.586 105.129 136.586 105.128C136.586 105.128 136.586 105.127 136.586 105.126C136.586 105.126 136.586 105.125 136.586 105.124C136.586 105.124 136.586 105.123 136.586 105.122C136.586 105.122 136.586 105.121 136.586 105.12C136.586 105.119 136.586 105.119 136.586 105.118C136.586 105.117 136.586 105.117 136.586 105.116C136.586 105.115 136.586 105.115 136.586 105.114C136.586 105.113 136.586 105.113 136.586 105.112C136.586 105.111 136.586 105.111 136.586 105.11C136.586 105.109 136.586 105.109 136.586 105.108C136.586 105.107 136.586 105.107 136.586 105.106C136.586 105.105 136.586 105.105 136.586 105.104C136.586 105.103 136.586 105.103 136.586 105.102C136.586 105.101 136.586 105.101 136.586 105.1C136.586 105.099 136.586 105.099 136.586 105.098C136.586 105.097 136.586 105.097 136.586 105.096C136.586 105.095 136.586 105.095 136.586 105.094C136.586 105.093 136.586 105.093 136.586 105.092C136.586 105.091 136.586 105.091 136.586 105.09C136.586 105.089 136.586 105.089 136.586 105.088C136.586 105.087 136.586 105.087 136.586 105.086C136.586 105.085 136.586 105.085 136.586 105.084C136.586 105.083 136.586 105.083 136.586 105.082C136.586 105.081 136.586 105.081 136.586 105.08C136.586 105.079 136.586 105.079 136.586 105.078C136.586 105.077 136.586 105.077 136.586 105.076C136.586 105.075 136.586 105.075 136.586 105.074C136.586 105.074 136.586 105.073 136.586 105.072C136.586 105.072 136.586 105.071 136.586 105.07C136.586 105.07 136.586 105.069 136.586 105.068C136.586 105.068 136.586 105.067 136.586 105.066C136.586 105.066 136.586 105.065 136.586 105.065C136.586 105.064 136.586 105.063 136.586 105.063C136.586 105.062 136.586 105.061 136.586 105.061C136.586 105.06 136.586 105.059 136.586 105.059C136.586 105.058 136.586 105.058 136.586 105.057C136.586 105.056 136.586 105.056 136.586 105.055C136.586 105.054 136.586 105.054 136.586 105.053C136.586 105.053 136.586 105.052 136.586 105.051C136.586 105.051 136.586 105.05 136.586 105.049C136.586 105.049 136.586 105.048 136.586 105.048C136.586 105.047 136.586 105.046 136.586 105.046C136.586 105.045 136.586 105.044 136.586 105.044C136.586 105.043 136.586 105.043 136.586 105.042C136.586 105.041 136.586 105.041 136.586 105.04C136.586 105.039 136.586 105.039 136.586 105.038C136.586 105.038 136.586 105.037 136.586 105.036C136.586 105.036 136.586 105.035 136.586 105.035C136.586 105.034 136.586 105.033 136.586 105.033C136.586 105.032 136.586 105.031 136.586 105.031C136.586 105.03 136.586 105.03 136.586 105.029C136.586 105.028 136.586 105.028 136.586 105.027C136.586 105.027 136.586 105.026 136.586 105.025C136.586 105.025 136.586 105.024 136.586 105.024C136.586 105.023 136.586 105.022 136.586 105.022C136.586 105.021 136.586 105.021 136.586 105.02C136.586 105.019 136.586 105.019 136.586 105.018C136.586 105.018 136.586 105.017 136.586 105.016C136.586 105.016 136.586 105.015 136.586 105.015C136.586 105.014 136.586 105.013 136.586 105.013H132.586C132.586 105.013 132.586 105.014 132.586 105.015C132.586 105.015 132.586 105.016 132.586 105.016C132.586 105.017 132.586 105.018 132.586 105.018C132.586 105.019 132.586 105.019 132.586 105.02C132.586 105.021 132.586 105.021 132.586 105.022C132.586 105.022 132.586 105.023 132.586 105.024C132.586 105.024 132.586 105.025 132.586 105.025C132.586 105.026 132.586 105.027 132.586 105.027C132.586 105.028 132.586 105.028 132.586 105.029C132.586 105.03 132.586 105.03 132.586 105.031C132.586 105.031 132.586 105.032 132.586 105.033C132.586 105.033 132.586 105.034 132.586 105.035C132.586 105.035 132.586 105.036 132.586 105.036C132.586 105.037 132.586 105.038 132.586 105.038C132.586 105.039 132.586 105.039 132.586 105.04C132.586 105.041 132.586 105.041 132.586 105.042C132.586 105.043 132.586 105.043 132.586 105.044C132.586 105.044 132.586 105.045 132.586 105.046C132.586 105.046 132.586 105.047 132.586 105.048C132.586 105.048 132.586 105.049 132.586 105.049C132.586 105.05 132.586 105.051 132.586 105.051C132.586 105.052 132.586 105.053 132.586 105.053C132.586 105.054 132.586 105.054 132.586 105.055C132.586 105.056 132.586 105.056 132.586 105.057C132.586 105.058 132.586 105.058 132.586 105.059C132.586 105.059 132.586 105.06 132.586 105.061C132.586 105.061 132.586 105.062 132.586 105.063C132.586 105.063 132.586 105.064 132.586 105.065C132.586 105.065 132.586 105.066 132.586 105.066C132.586 105.067 132.586 105.068 132.586 105.068C132.586 105.069 132.586 105.07 132.586 105.07C132.586 105.071 132.586 105.072 132.586 105.072C132.586 105.073 132.586 105.074 132.586 105.074C132.586 105.075 132.586 105.075 132.586 105.076C132.586 105.077 132.586 105.077 132.586 105.078C132.586 105.079 132.586 105.079 132.586 105.08C132.586 105.081 132.586 105.081 132.586 105.082C132.586 105.083 132.586 105.083 132.586 105.084C132.586 105.085 132.586 105.085 132.586 105.086C132.586 105.087 132.586 105.087 132.586 105.088C132.586 105.089 132.586 105.089 132.586 105.09C132.586 105.091 132.586 105.091 132.586 105.092C132.586 105.093 132.586 105.093 132.586 105.094C132.586 105.095 132.586 105.095 132.586 105.096C132.586 105.097 132.586 105.097 132.586 105.098C132.586 105.099 132.586 105.099 132.586 105.1C132.586 105.101 132.586 105.101 132.586 105.102C132.586 105.103 132.586 105.103 132.586 105.104C132.586 105.105 132.586 105.105 132.586 105.106C132.586 105.107 132.586 105.107 132.586 105.108C132.586 105.109 132.586 105.109 132.586 105.11C132.586 105.111 132.586 105.111 132.586 105.112C132.586 105.113 132.586 105.113 132.586 105.114C132.586 105.115 132.586 105.115 132.586 105.116C132.586 105.117 132.586 105.117 132.586 105.118C132.586 105.119 132.586 105.119 132.586 105.12C132.586 105.121 132.586 105.122 132.586 105.122C132.586 105.123 132.586 105.124 132.586 105.124C132.586 105.125 132.586 105.126 132.586 105.126C132.586 105.127 132.586 105.128 132.586 105.128C132.586 105.129 132.586 105.13 132.586 105.13C132.586 105.131 132.586 105.132 132.586 105.133C132.586 105.133 132.586 105.134 132.586 105.135C132.586 105.135 132.586 105.136 132.586 105.137C132.586 105.137 132.586 105.138 132.586 105.139C132.586 105.14 132.586 105.14 132.586 105.141C132.586 105.142 132.586 105.142 132.586 105.143C132.586 105.144 132.586 105.144 132.586 105.145C132.586 105.146 132.586 105.147 132.586 105.147C132.586 105.148 132.586 105.149 132.586 105.149C132.586 105.15 132.586 105.151 132.586 105.152C132.586 105.152 132.586 105.153 132.586 105.154C132.586 105.154 132.586 105.155 132.586 105.156C132.586 105.157 132.586 105.157 132.586 105.158C132.586 105.159 132.586 105.159 132.586 105.16C132.586 105.161 132.586 105.162 132.586 105.162C132.586 105.163 132.586 105.164 132.586 105.164C132.586 105.165 132.586 105.166 132.586 105.167C132.586 105.167 132.586 105.168 132.586 105.169C132.586 105.169 132.586 105.17 132.586 105.171C132.586 105.172 132.586 105.172 132.586 105.173C132.586 105.174 132.586 105.175 132.586 105.175C132.586 105.176 132.586 105.177 132.586 105.177C132.586 105.178 132.586 105.179 132.586 105.18C132.586 105.18 132.586 105.181 132.586 105.182C132.586 105.183 132.586 105.183 132.586 105.184C132.586 105.185 132.586 105.185 132.586 105.186C132.586 105.187 132.586 105.188 132.586 105.188C132.586 105.189 132.586 105.19 132.586 105.191C132.586 105.191 132.586 105.192 132.586 105.193C132.586 105.194 132.586 105.194 132.586 105.195C132.586 105.196 132.586 105.197 132.586 105.197C132.586 105.198 132.586 105.199 132.586 105.2C132.586 105.2 132.586 105.201 132.586 105.202C132.586 105.203 132.586 105.203 132.586 105.204C132.586 105.205 132.586 105.206 132.586 105.206C132.586 105.207 132.586 105.208 132.586 105.209C132.586 105.209 132.586 105.21 132.586 105.211C132.586 105.212 132.586 105.212 132.586 105.213C132.586 105.214 132.586 105.215 132.586 105.215C132.586 105.216 132.586 105.217 132.586 105.218C132.586 105.218 132.586 105.219 132.586 105.22C132.586 105.221 132.586 105.221 132.586 105.222C132.586 105.223 132.586 105.224 132.586 105.224C132.586 105.225 132.586 105.226 132.586 105.227C132.586 105.228 132.586 105.228 132.586 105.229C132.586 105.23 132.586 105.231 132.586 105.231C132.586 105.232 132.586 105.233 132.586 105.234C132.586 105.234 132.586 105.235 132.586 105.236C132.586 105.237 132.586 105.238 132.586 105.238C132.586 105.239 132.586 105.24 132.586 105.241C132.586 105.241 132.586 105.242 132.586 105.243C132.586 105.244 132.586 105.245 132.586 105.245C132.586 105.246 132.586 105.247 132.586 105.248C132.586 105.248 132.586 105.249 132.586 105.25C132.586 105.251 132.586 105.252 132.586 105.252C132.586 105.253 132.586 105.254 132.586 105.255C132.586 105.256 132.586 105.256 132.586 105.257C132.586 105.258 132.586 105.259 132.586 105.259C132.586 105.26 132.586 105.261 132.586 105.262C132.586 105.263 132.586 105.263 132.586 105.264C132.586 105.265 132.586 105.266 132.586 105.267C132.586 105.267 132.586 105.268 132.586 105.269C132.586 105.27 132.586 105.271 132.586 105.271C132.586 105.272 132.586 105.273 132.586 105.274C132.586 105.275 132.586 105.275 132.586 105.276C132.586 105.277 132.586 105.278 132.586 105.279C132.586 105.279 132.586 105.28 132.586 105.281C132.586 105.282 132.586 105.283 132.586 105.283C132.586 105.284 132.586 105.285 132.586 105.286C132.586 105.287 132.586 105.287 132.586 105.288C132.586 105.289 132.586 105.29 132.586 105.291C132.586 105.291 132.586 105.292 132.586 105.293C132.586 105.294 132.586 105.295 132.586 105.296C132.586 105.296 132.586 105.297 132.586 105.298C132.586 105.299 132.586 105.3 132.586 105.3C132.586 105.301 132.586 105.302 132.586 105.303C132.586 105.304 132.586 105.305 132.586 105.305C132.586 105.306 132.586 105.307 132.586 105.308C132.586 105.309 132.586 105.309 132.586 105.31C132.586 105.311 132.586 105.312 132.586 105.313C132.586 105.314 132.586 105.314 132.586 105.315C132.586 105.316 132.586 105.317 132.586 105.318C132.586 105.319 132.586 105.319 132.586 105.32C132.586 105.321 132.586 105.322 132.586 105.323C132.586 105.324 132.586 105.324 132.586 105.325C132.586 105.326 132.586 105.327 132.586 105.328C132.586 105.329 132.586 105.329 132.586 105.33C132.586 105.331 132.586 105.332 132.586 105.333C132.586 105.334 132.586 105.334 132.586 105.335C132.586 105.336 132.586 105.337 132.586 105.338C132.586 105.339 132.586 105.339 132.586 105.34C132.586 105.341 132.586 105.342 132.586 105.343C132.586 105.344 132.586 105.345 132.586 105.345C132.586 105.346 132.586 105.347 132.586 105.348C132.586 105.349 132.586 105.35 132.586 105.35C132.586 105.351 132.586 105.352 132.586 105.353C132.586 105.354 132.586 105.355 132.586 105.356C132.586 105.356 132.586 105.357 132.586 105.358C132.586 105.359 132.586 105.36 132.586 105.361C132.586 105.362 132.586 105.362 132.586 105.363C132.586 105.364 132.586 105.365 132.586 105.366C132.586 105.367 132.586 105.368 132.586 105.368C132.586 105.369 132.586 105.37 132.586 105.371C132.586 105.372 132.586 105.373 132.586 105.374C132.586 105.374 132.586 105.375 132.586 105.376C132.586 105.377 132.586 105.378 132.586 105.379C132.586 105.38 132.586 105.381 132.586 105.381C132.586 105.382 132.586 105.383 132.586 105.384C132.586 105.385 132.586 105.386 132.586 105.387C132.586 105.388 132.586 105.388 132.586 105.389C132.586 105.39 132.586 105.391 132.586 105.392C132.586 105.393 132.586 105.394 132.586 105.395C132.586 105.395 132.586 105.396 132.586 105.397C132.586 105.398 132.586 105.399 132.586 105.4C132.586 105.401 132.586 105.402 132.586 105.402C132.586 105.403 132.586 105.404 132.586 105.405C132.586 105.406 132.586 105.407 132.586 105.408C132.586 105.409 132.586 105.41 132.586 105.41C132.586 105.411 132.586 105.412 132.586 105.413C132.586 105.414 132.586 105.415 132.586 105.416C132.586 105.417 132.586 105.418 132.586 105.418C132.586 105.419 132.586 105.42 132.586 105.421C132.586 105.422 132.586 105.423 132.586 105.424C132.586 105.425 132.586 105.426 132.586 105.427C132.586 105.427 132.586 105.428 132.586 105.429C132.586 105.43 132.586 105.431 132.586 105.432C132.586 105.433 132.586 105.434 132.586 105.435C132.586 105.436 132.586 105.436 132.586 105.437C132.586 105.438 132.586 105.439 132.586 105.44C132.586 105.441 132.586 105.442 132.586 105.443C132.586 105.444 132.586 105.445 132.586 105.445C132.586 105.446 132.586 105.447 132.586 105.448C132.586 105.449 132.586 105.45 132.586 105.451C132.586 105.452 132.586 105.453 132.586 105.454C132.586 105.455 132.586 105.456 132.586 105.456C132.586 105.457 132.586 105.458 132.586 105.459C132.586 105.46 132.586 105.461 132.586 105.462C132.586 105.463 132.586 105.464 132.586 105.465C132.586 105.466 132.586 105.467 132.586 105.467C132.586 105.468 132.586 105.469 132.586 105.47C132.586 105.471 132.586 105.472 132.586 105.473C132.586 105.474 132.586 105.475 132.586 105.476C132.586 105.477 132.586 105.478 132.586 105.479C132.586 105.48 132.586 105.48 132.586 105.481C132.586 105.482 132.586 105.483 132.586 105.484C132.586 105.485 132.586 105.486 132.586 105.487C132.586 105.488 132.586 105.489 132.586 105.49C132.586 105.491 132.586 105.492 132.586 105.493C132.586 105.494 132.586 105.494 132.586 105.495C132.586 105.496 132.586 105.497 132.586 105.498C132.586 105.499 132.586 105.5 132.586 105.501C132.586 105.502 132.586 105.503 132.586 105.504C132.586 105.505 132.586 105.506 132.586 105.507C132.586 105.508 132.586 105.509 132.586 105.51C132.586 105.511 132.586 105.511 132.586 105.512C132.586 105.513 132.586 105.514 132.586 105.515C132.586 105.516 132.586 105.517 132.586 105.518C132.586 105.519 132.586 105.52 132.586 105.521C132.586 105.522 132.586 105.523 132.586 105.524C132.586 105.525 132.586 105.526 132.586 105.527C132.586 105.528 132.586 105.529 132.586 105.53C132.586 105.531 132.586 105.532 132.586 105.532C132.586 105.533 132.586 105.534 132.586 105.535C132.586 105.536 132.586 105.537 132.586 105.538C132.586 105.539 132.586 105.54 132.586 105.541C132.586 105.542 132.586 105.543 132.586 105.544C132.586 105.545 132.586 105.546 132.586 105.547C132.586 105.548 132.586 105.549 132.586 105.55C132.586 105.551 132.586 105.552 132.586 105.553C132.586 105.554 132.586 105.555 132.586 105.556C132.586 105.557 132.586 105.558 132.586 105.559C132.586 105.56 132.586 105.561 132.586 105.562C132.586 105.563 132.586 105.564 132.586 105.565C132.586 105.565 132.586 105.566 132.586 105.567C132.586 105.568 132.586 105.569 132.586 105.57C132.586 105.571 132.586 105.572 132.586 105.573C132.586 105.574 132.586 105.575 132.586 105.576C132.586 105.577 132.586 105.578 132.586 105.579C132.586 105.58 132.586 105.581 132.586 105.582C132.586 105.583 132.586 105.584 132.586 105.585C132.586 105.586 132.586 105.587 132.586 105.588C132.586 105.589 132.586 105.59 132.586 105.591C132.586 105.592 132.586 105.593 132.586 105.594C132.586 105.595 132.586 105.596 132.586 105.597C132.586 105.598 132.586 105.599 132.586 105.6C132.586 105.601 132.586 105.602 132.586 105.603C132.586 105.604 132.586 105.605 132.586 105.606C132.586 105.607 132.586 105.608 132.586 105.609C132.586 105.61 132.586 105.611 132.586 105.612C132.586 105.613 132.586 105.614 132.586 105.615C132.586 105.616 132.586 105.617 132.586 105.618C132.586 105.619 132.586 105.62 132.586 105.621C132.586 105.622 132.586 105.623 132.586 105.624C132.586 105.625 132.586 105.626 132.586 105.627C132.586 105.628 132.586 105.629 132.586 105.63C132.586 105.631 132.586 105.632 132.586 105.633C132.586 105.634 132.586 105.635 132.586 105.636C132.586 105.637 132.586 105.638 132.586 105.639C132.586 105.641 132.586 105.642 132.586 105.643C132.586 105.644 132.586 105.645 132.586 105.646C132.586 105.647 132.586 105.648 132.586 105.649C132.586 105.65 132.586 105.651 132.586 105.652C132.586 105.653 132.586 105.654 132.586 105.655C132.586 105.656 132.586 105.657 132.586 105.658C132.586 105.659 132.586 105.66 132.586 105.661C132.586 105.662 132.586 105.663 132.586 105.664C132.586 105.665 132.586 105.666 132.586 105.667C132.586 105.668 132.586 105.669 132.586 105.67C132.586 105.671 132.586 105.672 132.586 105.673C132.586 105.675 132.586 105.676 132.586 105.677C132.586 105.678 132.586 105.679 132.586 105.68C132.586 105.681 132.586 105.682 132.586 105.683C132.586 105.684 132.586 105.685 132.586 105.686C132.586 105.687 132.586 105.688 132.586 105.689C132.586 105.69 132.586 105.691 132.586 105.692C132.586 105.693 132.586 105.694 132.586 105.695C132.586 105.696 132.586 105.698 132.586 105.699C132.586 105.7 132.586 105.701 132.586 105.702C132.586 105.703 132.586 105.704 132.586 105.705C132.586 105.706 132.586 105.707 132.586 105.708C132.586 105.709 132.586 105.71 132.586 105.711C132.586 105.712 132.586 105.713 132.586 105.714C132.586 105.715 132.586 105.717 132.586 105.718C132.586 105.719 132.586 105.72 132.586 105.721C132.586 105.722 132.586 105.723 132.586 105.724C132.586 105.725 132.586 105.726 132.586 105.727C132.586 105.728 132.586 105.729 132.586 105.73C132.586 105.731 132.586 105.733 132.586 105.734C132.586 105.735 132.586 105.736 132.586 105.737C132.586 105.738 132.586 105.739 132.586 105.74C132.586 105.741 132.586 105.742 132.586 105.743C132.586 105.744 132.586 105.745 132.586 105.746C132.586 105.748 132.586 105.749 132.586 105.75C132.586 105.751 132.586 105.752 132.586 105.753C132.586 105.754 132.586 105.755 132.586 105.756C132.586 105.757 132.586 105.758 132.586 105.759C132.586 105.761 132.586 105.762 132.586 105.763C132.586 105.764 132.586 105.765 132.586 105.766C132.586 105.767 132.586 105.768 132.586 105.769C132.586 105.77 132.586 105.771 132.586 105.772C132.586 105.774 132.586 105.775 132.586 105.776C132.586 105.777 132.586 105.778 132.586 105.779C132.586 105.78 132.586 105.781 132.586 105.782C132.586 105.783 132.586 105.784 132.586 105.786C132.586 105.787 132.586 105.788 132.586 105.789C132.586 105.79 132.586 105.791 132.586 105.792C132.586 105.793 132.586 105.794 132.586 105.795C132.586 105.797 132.586 105.798 132.586 105.799C132.586 105.8 132.586 105.801 132.586 105.802C132.586 105.803 132.586 105.804 132.586 105.805C132.586 105.807 132.586 105.808 132.586 105.809C132.586 105.81 132.586 105.811 132.586 105.812C132.586 105.813 132.586 105.814 132.586 105.815C132.586 105.817 132.586 105.818 132.586 105.819C132.586 105.82 132.586 105.821 132.586 105.822C132.586 105.823 132.586 105.824 132.586 105.825C132.586 105.827 132.586 105.828 132.586 105.829C132.586 105.83 132.586 105.831 132.586 105.832C132.586 105.833 132.586 105.834 132.586 105.835C132.586 105.837 132.586 105.838 132.586 105.839C132.586 105.84 132.586 105.841 132.586 105.842C132.586 105.843 132.586 105.844 132.586 105.846C132.586 105.847 132.586 105.848 132.586 105.849C132.586 105.85 132.586 105.851 132.586 105.852C132.586 105.854 132.586 105.855 132.586 105.856C132.586 105.857 132.586 105.858 132.586 105.859C132.586 105.86 132.586 105.861 132.586 105.863C132.586 105.864 132.586 105.865 132.586 105.866C132.586 105.867 132.586 105.868 132.586 105.869C132.586 105.871 132.586 105.872 132.586 105.873C132.586 105.874 132.586 105.875 132.586 105.876C132.586 105.877 132.586 105.879 132.586 105.88C132.586 105.881 132.586 105.882 132.586 105.883C132.586 105.884 132.586 105.885 132.586 105.887C132.586 105.888 132.586 105.889 132.586 105.89C132.586 105.891 132.586 105.892 132.586 105.893C132.586 105.895 132.586 105.896 132.586 105.897C132.586 105.898 132.586 105.899 132.586 105.9C132.586 105.901 132.586 105.903 132.586 105.904C132.586 105.905 132.586 105.906 132.586 105.907C132.586 105.908 132.586 105.91 132.586 105.911C132.586 105.912 132.586 105.913 132.586 105.914C132.586 105.915 132.586 105.917 132.586 105.918C132.586 105.919 132.586 105.92 132.586 105.921C132.586 105.922 132.586 105.923 132.586 105.925C132.586 105.926 132.586 105.927 132.586 105.928C132.586 105.929 132.586 105.93 132.586 105.932C132.586 105.933 132.586 105.934 132.586 105.935C132.586 105.936 132.586 105.937 132.586 105.939C132.586 105.94 132.586 105.941 132.586 105.942C132.586 105.943 132.586 105.945 132.586 105.946C132.586 105.947 132.586 105.948 132.586 105.949C132.586 105.95 132.586 105.952 132.586 105.953C132.586 105.954 132.586 105.955 132.586 105.956C132.586 105.957 132.586 105.959 132.586 105.96C132.586 105.961 132.586 105.962 132.586 105.963C132.586 105.965 132.586 105.966 132.586 105.967C132.586 105.968 132.586 105.969 132.586 105.97C132.586 105.972 132.586 105.973 132.586 105.974C132.586 105.975 132.586 105.976 132.586 105.978C132.586 105.979 132.586 105.98 132.586 105.981C132.586 105.982 132.586 105.984 132.586 105.985C132.586 105.986 132.586 105.987 132.586 105.988C132.586 105.99 132.586 105.991 132.586 105.992C132.586 105.993 132.586 105.994 132.586 105.995C132.586 105.997 132.586 105.998 132.586 105.999C132.586 106 132.586 106.001 132.586 106.003C132.586 106.004 132.586 106.005 132.586 106.006C132.586 106.007 132.586 106.009 132.586 106.01C132.586 106.011 132.586 106.012 132.586 106.014C132.586 106.015 132.586 106.016 132.586 106.017C132.586 106.018 132.586 106.02 132.586 106.021C132.586 106.022 132.586 106.023 132.586 106.024C132.586 106.026 132.586 106.027 132.586 106.028C132.586 106.029 132.586 106.03 132.586 106.032C132.586 106.033 132.586 106.034 132.586 106.035C132.586 106.037 132.586 106.038 132.586 106.039C132.586 106.04 132.586 106.041 132.586 106.043C132.586 106.044 132.586 106.045 132.586 106.046C132.586 106.047 132.586 106.049 132.586 106.05C132.586 106.051 132.586 106.052 132.586 106.054C132.586 106.055 132.586 106.056 132.586 106.057C132.586 106.059 132.586 106.06 132.586 106.061C132.586 106.062 132.586 106.063 132.586 106.065C132.586 106.066 132.586 106.067 132.586 106.068C132.586 106.07 132.586 106.071 132.586 106.072C132.586 106.073 132.586 106.074 132.586 106.076C132.586 106.077 132.586 106.078 132.586 106.079C132.586 106.081 132.586 106.082 132.586 106.083C132.586 106.084 132.586 106.086 132.586 106.087C132.586 106.088 132.586 106.089 132.586 106.091C132.586 106.092 132.586 106.093 132.586 106.094C132.586 106.096 132.586 106.097 132.586 106.098C132.586 106.099 132.586 106.101 132.586 106.102C132.586 106.103 132.586 106.104 132.586 106.105C132.586 106.107 132.586 106.108 132.586 106.109C132.586 106.11 132.586 106.112 132.586 106.113C132.586 106.114 132.586 106.115 132.586 106.117C132.586 106.118 132.586 106.119 132.586 106.121C132.586 106.122 132.586 106.123 132.586 106.124C132.586 106.126 132.586 106.127 132.586 106.128C132.586 106.129 132.586 106.131 132.586 106.132C132.586 106.133 132.586 106.134 132.586 106.136C132.586 106.137 132.586 106.138 132.586 106.139C132.586 106.141 132.586 106.142 132.586 106.143C132.586 106.144 132.586 106.146 132.586 106.147C132.586 106.148 132.586 106.149 132.586 106.151C132.586 106.152 132.586 106.153 132.586 106.155C132.586 106.156 132.586 106.157 132.586 106.158C132.586 106.16 132.586 106.161 132.586 106.162C132.586 106.163 132.586 106.165 132.586 106.166C132.586 106.167 132.586 106.169 132.586 106.17C132.586 106.171 132.586 106.172 132.586 106.174C132.586 106.175 132.586 106.176 132.586 106.177C132.586 106.179 132.586 106.18 132.586 106.181C132.586 106.183 132.586 106.184 132.586 106.185C132.586 106.186 132.586 106.188 132.586 106.189C132.586 106.19 132.586 106.192 132.586 106.193C132.586 106.194 132.586 106.195 132.586 106.197C132.586 106.198 132.586 106.199 132.586 106.201C132.586 106.202 132.586 106.203 132.586 106.204C132.586 106.206 132.586 106.207 132.586 106.208C132.586 106.21 132.586 106.211 132.586 106.212C132.586 106.213 132.586 106.215 132.586 106.216C132.586 106.217 132.586 106.219 132.586 106.22C132.586 106.221 132.586 106.223 132.586 106.224C132.586 106.225 132.586 106.226 132.586 106.228C132.586 106.229 132.586 106.23 132.586 106.232C132.586 106.233 132.586 106.234 132.586 106.236C132.586 106.237 132.586 106.238 132.586 106.239C132.586 106.241 132.586 106.242 132.586 106.243C132.586 106.245 132.586 106.246 132.586 106.247C132.586 106.249 132.586 106.25 132.586 106.251C132.586 106.253 132.586 106.254 132.586 106.255C132.586 106.256 132.586 106.258 132.586 106.259C132.586 106.26 132.586 106.262 132.586 106.263C132.586 106.264 132.586 106.266 132.586 106.267C132.586 106.268 132.586 106.27 132.586 106.271C132.586 106.272 132.586 106.274 132.586 106.275C132.586 106.276 132.586 106.278 132.586 106.279C132.586 106.28 132.586 106.282 132.586 106.283C132.586 106.284 132.586 106.285 132.586 106.287C132.586 106.288 132.586 106.289 132.586 106.291C132.586 106.292 132.586 106.293 132.586 106.295C132.586 106.296 132.586 106.297 132.586 106.299C132.586 106.3 132.586 106.301 132.586 106.303C132.586 106.304 132.586 106.305 132.586 106.307C132.586 106.308 132.586 106.309 132.586 106.311C132.586 106.312 132.586 106.313 132.586 106.315C132.586 106.316 132.586 106.317 132.586 106.319C132.586 106.32 132.586 106.321 132.586 106.323C132.586 106.324 132.586 106.325 132.586 106.327C132.586 106.328 132.586 106.329 132.586 106.331C132.586 106.332 132.586 106.334 132.586 106.335C132.586 106.336 132.586 106.338 132.586 106.339C132.586 106.34 132.586 106.342 132.586 106.343C132.586 106.344 132.586 106.346 132.586 106.347C132.586 106.348 132.586 106.35 132.586 106.351C132.586 106.352 132.586 106.354 132.586 106.355C132.586 106.356 132.586 106.358 132.586 106.359C132.586 106.361 132.586 106.362 132.586 106.363C132.586 106.365 132.586 106.366 132.586 106.367C132.586 106.369 132.586 106.37 132.586 106.371C132.586 106.373 132.586 106.374 132.586 106.375C132.586 106.377 132.586 106.378 132.586 106.38C132.586 106.381 132.586 106.382 132.586 106.384C132.586 106.385 132.586 106.386 132.586 106.388C132.586 106.389 132.586 106.39 132.586 106.392C132.586 106.393 132.586 106.395 132.586 106.396C132.586 106.397 132.586 106.399 132.586 106.4C132.586 106.401 132.586 106.403 132.586 106.404C132.586 106.406 132.586 106.407 132.586 106.408C132.586 106.41 132.586 106.411 132.586 106.412C132.586 106.414 132.586 106.415 132.586 106.417C132.586 106.418 132.586 106.419 132.586 106.421C132.586 106.422 132.586 106.423 132.586 106.425C132.586 106.426 132.586 106.428 132.586 106.429C132.586 106.43 132.586 106.432 132.586 106.433C132.586 106.434 132.586 106.436 132.586 106.437C132.586 106.439 132.586 106.44 132.586 106.441C132.586 106.443 132.586 106.444 132.586 106.446C132.586 106.447 132.586 106.448 132.586 106.45C132.586 106.451 132.586 106.453 132.586 106.454C132.586 106.455 132.586 106.457 132.586 106.458C132.586 106.459 132.586 106.461 132.586 106.462C132.586 106.464 132.586 106.465 132.586 106.466C132.586 106.468 132.586 106.469 132.586 106.471C132.586 106.472 132.586 106.473 132.586 106.475C132.586 106.476 132.586 106.478 132.586 106.479C132.586 106.48 132.586 106.482 132.586 106.483C132.586 106.485 132.586 106.486 132.586 106.488C132.586 106.489 132.586 106.49 132.586 106.492C132.586 106.493 132.586 106.495 132.586 106.496C132.586 106.497 132.586 106.499 132.586 106.5C132.586 106.502 132.586 106.503 132.586 106.504C132.586 106.506 132.586 106.507 132.586 106.509C132.586 106.51 132.586 106.511 132.586 106.513C132.586 106.514 132.586 106.516 132.586 106.517C132.586 106.519 132.586 106.52 132.586 106.521C132.586 106.523 132.586 106.524 132.586 106.526C132.586 106.527 132.586 106.528 132.586 106.53C132.586 106.531 132.586 106.533 132.586 106.534C132.586 106.536 132.586 106.537 132.586 106.538C132.586 106.54 132.586 106.541 132.586 106.543C132.586 106.544 132.586 106.546 132.586 106.547C132.586 106.548 132.586 106.55 132.586 106.551C132.586 106.553 132.586 106.554 132.586 106.556C132.586 106.557 132.586 106.558 132.586 106.56C132.586 106.561 132.586 106.563 132.586 106.564C132.586 106.566 132.586 106.567 132.586 106.569C132.586 106.57 132.586 106.571 132.586 106.573H136.586ZM136.586 105.013C136.586 103.143 136.877 101.478 137.433 99.9951L133.688 98.5906C132.944 100.574 132.586 102.722 132.586 105.013H136.586ZM137.418 100.036C138.049 98.4561 138.856 97.0018 139.837 95.6676L136.614 93.2981C135.429 94.9106 134.459 96.6629 133.704 98.5501L137.418 100.036ZM139.853 95.6453C140.866 94.2275 142 92.9111 143.256 91.695L140.475 88.8206C139.045 90.2046 137.752 91.7048 136.598 93.3204L139.853 95.6453ZM143.233 91.7169C144.628 90.4098 146 89.1025 147.351 87.795L144.57 84.9206C143.234 86.2132 141.877 87.5059 140.498 88.7988L143.233 91.7169ZM147.344 87.8018C148.383 86.8064 149.357 85.8762 150.265 85.0111L147.506 82.1146C146.595 82.9828 145.618 83.916 144.577 84.9139L147.344 87.8018ZM150.3 84.9771C151.243 84.0342 152.084 83.1255 152.82 82.2511L149.761 79.6746C149.11 80.4469 148.349 81.2714 147.471 82.1486L150.3 84.9771ZM152.852 82.2122C153.622 81.2497 154.254 80.274 154.723 79.284L151.108 77.5717C150.797 78.2283 150.346 78.9426 149.729 79.7134L152.852 82.2122ZM154.739 79.2486C155.234 78.149 155.501 77.0038 155.501 75.8278H151.501C151.501 76.3852 151.377 76.9733 151.092 77.6071L154.739 79.2486ZM155.501 75.8278C155.501 73.5713 154.849 71.4743 153.044 70.1748L150.707 73.4209C151.069 73.6814 151.501 74.2711 151.501 75.8278H155.501ZM153.044 70.1748C151.557 69.1037 149.782 68.6278 147.846 68.6278V72.6278C149.116 72.6278 150.028 72.932 150.707 73.4209L153.044 70.1748ZM147.846 68.6278C146.449 68.6278 145.105 68.8615 143.828 69.3402L145.233 73.0855C146.036 72.7841 146.902 72.6278 147.846 72.6278V68.6278ZM143.874 69.3238C142.753 69.7136 141.696 70.2042 140.707 70.7978L142.765 74.2278C143.509 73.7815 144.315 73.4054 145.188 73.1018L143.874 69.3238ZM140.734 70.782C139.823 71.3089 139.004 71.8761 138.289 72.4893L140.892 75.5264C141.39 75.0995 142.001 74.6701 142.738 74.2437L140.734 70.782ZM138.355 72.4352C137.727 72.9289 137.199 73.3764 136.811 73.7636L139.64 76.5921C139.859 76.3727 140.241 76.0401 140.826 75.5805L138.355 72.4352ZM139.855 74.0183L135.045 67.2583L131.786 69.5773L136.596 76.3373L139.855 74.0183ZM134.779 69.8811C136.516 68.2624 138.539 66.9298 140.864 65.8879L139.227 62.2378C136.525 63.4492 134.128 65.0199 132.052 66.9546L134.779 69.8811ZM140.878 65.8815C143.165 64.8349 145.61 64.3078 148.236 64.3078V60.3078C145.055 60.3078 142.04 60.9508 139.213 62.2442L140.878 65.8815ZM148.236 64.3078C150.735 64.3078 152.795 64.5958 154.454 65.1237L155.667 61.312C153.513 60.6266 151.023 60.3078 148.236 60.3078V64.3078ZM154.454 65.1237C156.138 65.6593 157.423 66.3947 158.38 67.2834L161.101 64.3522C159.632 62.9876 157.797 61.9897 155.667 61.312L154.454 65.1237ZM158.435 67.3327C159.42 68.182 160.133 69.229 160.584 70.5108L164.358 69.1849C163.681 67.26 162.575 65.6204 161.046 64.303L158.435 67.3327ZM160.607 70.5727C161.108 71.8621 161.381 73.3862 161.381 75.1778H165.381C165.381 72.9828 165.047 70.9536 164.335 69.1229L160.607 70.5727Z" fill="#FF5A00"/>
</svg>
