<svg width="185" height="121" viewBox="0 0 185 121" fill="none" xmlns="http://www.w3.org/2000/svg">
<path d="M64.4714 101.218V92.0083M14.7818 4.7213H114.162H14.7818ZM114.162 14.8933H14.7806H114.162ZM9.73011 17.9874V1.62842V17.9874ZM9.73011 4.7213H5.98349C4.65807 4.75663 3.3988 5.30797 2.47382 6.25792C1.54885 7.20787 1.03125 8.48139 1.03125 9.80728C1.03125 11.1332 1.54885 12.4067 2.47382 13.3566C3.3988 14.3066 4.65807 14.8579 5.98349 14.8933H9.73011V4.7213ZM119.214 17.9874V1.62842V17.9874ZM119.214 4.7213H122.96C124.296 4.74185 125.569 5.28673 126.507 6.2383C127.444 7.18987 127.969 8.47179 127.969 9.80728C127.969 11.1428 127.444 12.4247 126.507 13.3763C125.569 14.3278 124.296 14.8727 122.96 14.8933H119.214V4.7213ZM114.162 14.8933V92.0083H14.7806V14.8933H114.162ZM68.8537 105.601C68.8635 105.019 68.7574 104.441 68.5417 103.901C68.326 103.361 68.0049 102.869 67.5972 102.455C67.1894 102.04 66.7032 101.71 66.1669 101.486C65.6306 101.261 65.0548 101.145 64.4732 101.144C63.8916 101.144 63.3158 101.26 62.7793 101.485C62.2429 101.709 61.7565 102.038 61.3485 102.453C60.9406 102.867 60.6192 103.359 60.4032 103.899C60.1872 104.439 60.0808 105.017 60.0903 105.598C60.109 106.748 60.5787 107.844 61.3982 108.65C62.2176 109.457 63.3211 109.909 64.4708 109.909C65.6205 109.909 66.7242 109.458 67.5441 108.652C68.364 107.846 68.8343 106.75 68.8537 105.601Z" stroke="#FF5A00" stroke-width="2" stroke-linecap="round" stroke-linejoin="round"/>
<path d="M100.348 53.4008V75.3929H92.5132V53.4008M36.4296 39.7916V75.3917H28.5944V39.7928L36.4296 39.7916ZM57.7354 56.1493V75.3929H49.9003V56.1493H57.7354ZM79.0437 39.7916V75.3917H71.2062V39.7928L79.0437 39.7916Z" stroke="#FF5A00" stroke-width="2" stroke-linecap="round"/>
<path d="M32.512 26.835L53.8179 43.1927L75.1249 26.835L96.4308 40.4429" stroke="#FF5A00" stroke-width="2" stroke-linecap="round" stroke-linejoin="round"/>
<path d="M151.691 70.7078L150.926 68.8598L149.113 69.6098L149.828 71.4366L151.691 70.7078ZM155.591 68.9528L156.462 70.7532L156.473 70.7475L156.485 70.7417L155.591 68.9528ZM159.621 66.7428L160.65 68.4578L160.67 68.4454L160.691 68.4325L159.621 66.7428ZM163.326 64.2078L164.516 65.815L164.526 65.8078L163.326 64.2078ZM166.576 61.3478V59.3478H165.721L165.13 59.9654L166.576 61.3478ZM173.336 61.3478H175.336V59.3478H173.336V61.3478ZM173.336 106.393V108.393H175.336V106.393H173.336ZM163.651 106.393H161.651V108.393H163.651V106.393ZM163.651 73.9578H165.651V70.2208L162.541 72.2937L163.651 73.9578ZM159.296 76.3628L160.089 78.1986L160.11 78.1896L160.131 78.1802L159.296 76.3628ZM154.616 78.1828L152.753 78.9116L153.451 80.6963L155.264 80.0747L154.616 78.1828ZM152.455 72.5559C153.751 72.0197 155.087 71.4185 156.462 70.7532L154.719 67.1525C153.408 67.7872 152.143 68.356 150.926 68.8598L152.455 72.5559ZM156.485 70.7417C157.916 70.026 159.305 69.2647 160.65 68.4578L158.592 65.0279C157.336 65.7809 156.038 66.493 154.696 67.164L156.485 70.7417ZM160.691 68.4325C162.029 67.5846 163.305 66.7122 164.516 65.8149L162.135 62.6007C161.006 63.4368 159.812 64.2544 158.55 65.0532L160.691 68.4325ZM164.526 65.8078C165.818 64.8386 166.985 63.8134 168.021 62.7303L165.13 59.9654C164.26 60.8756 163.26 61.7571 162.126 62.6078L164.526 65.8078ZM166.576 63.3478H173.336V59.3478H166.576V63.3478ZM171.336 61.3478V106.393H175.336V61.3478H171.336ZM173.336 104.393H163.651V108.393H173.336V104.393ZM165.651 106.393V73.9578H161.651V106.393H165.651ZM162.541 72.2937C161.339 73.0953 159.981 73.8471 158.461 74.5455L160.131 78.1802C161.817 77.4052 163.362 76.5537 164.76 75.6219L162.541 72.2937ZM158.502 74.5271C156.942 75.2017 155.43 75.7892 153.967 76.2909L155.264 80.0747C156.834 79.5365 158.443 78.9107 160.089 78.1986L158.502 74.5271ZM156.478 77.454L153.553 69.979L149.828 71.4366L152.753 78.9116L156.478 77.454Z" fill="#FF5A00"/>
</svg>
