<svg width="194" height="128" viewBox="0 0 194 128" fill="none" xmlns="http://www.w3.org/2000/svg">
<path fill-rule="evenodd" clip-rule="evenodd" d="M45.7437 63.2252C45.7437 61.7891 47.849 39.2003 47.849 39.2003L63.0682 29.2468L45.7437 63.2252ZM71.3952 51.2002L67.7586 63.2252L71.3952 51.2002ZM101.257 63.2252C101.257 61.7891 99.1519 39.2003 99.1519 39.2003L83.9327 29.2468L101.257 63.2252ZM83.9327 29.2468L67.6421 44.2918L71.3952 51.2015H75.6057L79.3601 44.2918L63.0695 29.2468H83.9327ZM75.6057 51.2002L79.2435 63.2252L75.6057 51.2002ZM83.9327 54.2604H92.068H83.9327ZM83.2761 13.6128C83.2761 6.98499 78.9002 1.6116 73.5005 1.6116C68.102 1.6116 63.7248 6.98499 63.7248 13.6128C63.7248 20.2418 68.102 25.6139 73.4992 25.6139C78.9002 25.6139 83.2761 20.2405 83.2761 13.6128V13.6128ZM98.9038 39.4184L109.132 35.1126L98.9038 39.4184ZM116.143 40.0612L109.131 35.1139L116.143 40.0612ZM135.811 63.2841C135.811 62.3192 133.384 39.4184 133.384 39.4184L123.156 35.1139L135.811 63.2841ZM123.156 35.1126L116.144 40.06V54.2591L123.156 35.1126ZM123.584 21.0275C123.584 15.9824 120.253 11.8922 116.144 11.8922C112.034 11.8922 108.703 15.9824 108.703 21.0275C108.703 26.0713 112.034 30.1628 116.144 30.1628C120.253 30.1628 123.584 26.0713 123.584 21.0275ZM48.0984 39.4184L37.8704 35.1126L48.0984 39.4184ZM30.8579 40.0612L37.8704 35.1139L30.8579 40.0612ZM11.1763 63.2841C11.1763 62.3192 13.6174 39.4184 13.6174 39.4184L23.8454 35.1139L11.1763 63.2841ZM23.8466 35.1126L30.8579 40.06V54.2591L23.8466 35.1126ZM23.4168 21.0275C23.4168 15.9824 26.7476 11.8922 30.8566 11.8922C34.9669 11.8922 38.2977 15.9824 38.2977 21.0275C38.2977 26.0713 34.9669 30.1628 30.8566 30.1628C26.7476 30.1628 23.4168 26.0713 23.4168 21.0275Z" stroke="#FF5A00" stroke-width="2" stroke-linecap="round" stroke-linejoin="round"/>
<path d="M39.3641 85.1386H107.637M133.352 63.2265H13.6487C6.93698 63.2265 1.49841 68.6651 1.49841 75.3755V114.393H26.3955V108.74C26.3955 101.166 32.5358 95.027 40.1097 95.027H106.891C114.466 95.027 120.607 101.166 120.607 108.74V114.392H145.503V75.3768C145.503 68.6676 140.063 63.2278 133.352 63.2278V63.2265Z" stroke="#FF5A00" stroke-width="2" stroke-linecap="round" stroke-linejoin="round"/>
<path d="M176.876 79.8036H178.876V73.8958L175.287 78.5887L176.876 79.8036ZM171.481 87.0186L173.093 88.2013H173.093L171.481 87.0186ZM166.671 95.0136L164.865 94.1537L163.503 97.0136H166.671V95.0136ZM176.876 95.0136V97.0136H178.876V95.0136H176.876ZM186.366 67.9736H188.366V65.9736H186.366V67.9736ZM186.366 95.0136H184.366V97.0136H186.366V95.0136ZM191.176 95.0136H193.176V93.0136H191.176V95.0136ZM191.176 102.944V104.944H193.176V102.944H191.176ZM186.366 102.944V100.944H184.366V102.944H186.366ZM186.366 113.019V115.019H188.366V113.019H186.366ZM176.876 113.019H174.876V115.019H176.876V113.019ZM176.876 102.944H178.876V100.944H176.876V102.944ZM157.441 102.944H155.441V104.944H157.441V102.944ZM157.441 95.8586L155.652 94.9642L155.441 95.3865V95.8586H157.441ZM161.016 89.4236L162.731 90.4526L162.735 90.4458L162.739 90.439L161.016 89.4236ZM165.761 82.0136L164.118 80.8723L164.114 80.8781L165.761 82.0136ZM177.201 67.9736V65.9736H176.372L175.786 66.5594L177.201 67.9736ZM175.287 78.5887C173.588 80.8109 171.781 83.2267 169.868 85.8359L173.093 88.2013C174.993 85.6105 176.784 83.2163 178.464 81.0185L175.287 78.5887ZM169.868 85.8359C167.892 88.5305 166.222 91.3031 164.865 94.1537L168.476 95.8735C169.719 93.2641 171.256 90.7067 173.093 88.2013L169.868 85.8359ZM166.671 97.0136H176.876V93.0136H166.671V97.0136ZM178.876 95.0136V79.8036H174.876V95.0136H178.876ZM184.366 67.9736V95.0136H188.366V67.9736H184.366ZM186.366 97.0136H191.176V93.0136H186.366V97.0136ZM189.176 95.0136V102.944H193.176V95.0136H189.176ZM191.176 100.944H186.366V104.944H191.176V100.944ZM184.366 102.944V113.019H188.366V102.944H184.366ZM186.366 111.019H176.876V115.019H186.366V111.019ZM178.876 113.019V102.944H174.876V113.019H178.876ZM176.876 100.944H157.441V104.944H176.876V100.944ZM159.441 102.944V95.8586H155.441V102.944H159.441ZM159.23 96.753C160.154 94.9034 161.32 92.8044 162.731 90.4526L159.301 88.3946C157.852 90.8095 156.634 93.0004 155.652 94.9642L159.23 96.753ZM162.739 90.439C164.143 88.0565 165.699 85.6265 167.407 83.1491L164.114 80.8781C162.356 83.4274 160.749 85.9374 159.293 88.4082L162.739 90.439ZM167.403 83.1549C169.153 80.6364 170.989 78.1819 172.91 75.7914L169.792 73.2858C167.813 75.7487 165.921 78.2775 164.118 80.8723L167.403 83.1549ZM172.91 75.7914C174.82 73.4141 176.722 71.2806 178.615 69.3878L175.786 66.5594C173.779 68.5666 171.781 70.8098 169.792 73.2858L172.91 75.7914ZM177.201 69.9736H186.366V65.9736H177.201V69.9736Z" fill="#FF5A00"/>
</svg>
